<?xml version="1.0" encoding="utf-8"?>
<!-- Generator: Adobe Illustrator 16.0.4, SVG Export Plug-In . SVG Version: 6.00 Build 0)  -->
<!DOCTYPE svg PUBLIC "-//W3C//DTD SVG 1.1//EN" "http://www.w3.org/Graphics/SVG/1.1/DTD/svg11.dtd">
<svg version="1.1" id="Layer_1" xmlns="http://www.w3.org/2000/svg" xmlns:xlink="http://www.w3.org/1999/xlink" x="0px" y="0px"
	 width="26px" height="26px" viewBox="0 0 26 26" style="enable-background:new 0 0 26 26;" xml:space="preserve">
<path style="fill:#FFFFFF;" d="M18.2,19.14c-1.44,0-2.61,1.17-2.61,2.61c0,1.44,1.17,2.61,2.61,2.61c1.44,0,2.61-1.17,2.61-2.61
	C20.8,20.31,19.64,19.14,18.2,19.14z M18.2,23.64c-1.05,0-1.9-0.85-1.9-1.9c0-1.05,0.85-1.9,1.9-1.9c1.05,0,1.9,0.85,1.9,1.9
	C20.09,22.79,19.24,23.64,18.2,23.64L18.2,23.64z"/>
<path style="fill:#FFFFFF;" d="M24.22,0H1.78C0.8,0,0,0.8,0,1.78v2.81c0,1.07,0.87,1.93,1.94,1.94c0.05,0,0.1,0,0.15-0.01v7.21H0.36
	c-0.2,0-0.36,0.16-0.36,0.36v2.17c0,0.2,0.16,0.36,0.36,0.36h0.66v5.81c0,0.2,0.16,0.36,0.36,0.36h1.1v2.26
	c0,0.53,0.43,0.96,0.96,0.96h0.99c0.53,0,0.96-0.43,0.96-0.96v-2.26h8.67c0.55,2.27,2.84,3.66,5.11,3.1c1.53-0.38,2.73-1.57,3.1-3.1
	h2.35c0.2,0,0.36-0.16,0.36-0.36v-5.81h0.66c0.2,0,0.36-0.16,0.36-0.36v-2.17c0-0.2-0.16-0.36-0.36-0.36h-1.73V6.52
	c0.05,0,0.1,0.01,0.15,0.01c1.07,0,1.93-0.87,1.94-1.94V1.78C26,0.8,25.2,0,24.22,0z M0.71,1.78c0-0.59,0.48-1.07,1.07-1.07h22.45
	c0.59,0,1.07,0.48,1.07,1.07v1.94H0.71V1.78z M22.11,4.76c-0.09,0.67-0.71,1.14-1.38,1.05c-0.61-0.08-1.06-0.61-1.06-1.22V4.43h2.45
	C22.13,4.54,22.13,4.65,22.11,4.76L22.11,4.76L22.11,4.76z M4.95,13.72V6.52c0.05,0,0.1,0.01,0.15,0.01c0.63,0,1.22-0.31,1.58-0.82
	c0.61,0.87,1.82,1.08,2.69,0.47C9.55,6.05,9.71,5.89,9.84,5.7c0.61,0.87,1.82,1.08,2.69,0.47C12.71,6.05,12.87,5.89,13,5.7
	c0.61,0.87,1.82,1.08,2.69,0.47c0.18-0.13,0.34-0.29,0.47-0.47c0.61,0.87,1.82,1.08,2.69,0.47c0.18-0.13,0.34-0.29,0.47-0.47
	c0.36,0.51,0.95,0.82,1.58,0.82c0.05,0,0.1,0,0.15-0.01v7.21H4.95z M4.12,5.32C3.93,5.07,3.84,4.75,3.87,4.43h2.45v0.16
	c0,0.68-0.55,1.22-1.22,1.23C4.71,5.81,4.35,5.63,4.12,5.32z M9.48,4.43v0.16c0,0.68-0.55,1.23-1.23,1.23
	c-0.68,0-1.23-0.55-1.23-1.22c0,0,0,0,0,0V4.43H9.48z M12.64,4.43v0.16c-0.01,0.68-0.56,1.22-1.24,1.21
	c-0.66-0.01-1.2-0.54-1.21-1.21V4.43H12.64z M15.81,4.43v0.16c0,0.68-0.55,1.23-1.22,1.23c-0.68,0-1.23-0.55-1.23-1.22c0,0,0,0,0,0
	V4.43H15.81z M18.97,4.43v0.16c-0.01,0.68-0.56,1.22-1.24,1.21c-0.66-0.01-1.2-0.54-1.21-1.21V4.43H18.97z M0.71,4.59V4.43h2.45
	c0.07,0.69-0.43,1.3-1.12,1.38c-0.04,0-0.07,0.01-0.11,0.01C1.26,5.81,0.71,5.26,0.71,4.59z M2.79,6.32
	c0.29-0.15,0.53-0.36,0.72-0.62c0.19,0.26,0.44,0.47,0.72,0.62v7.4H2.79V6.32z M4.68,25.04c0,0.14-0.11,0.25-0.25,0.25H3.44
	c-0.14,0-0.25-0.11-0.25-0.25v-2.26h1.5V25.04z M18.17,25.29c-1.95,0-3.52-1.58-3.52-3.52s1.58-3.52,3.52-3.52s3.52,1.58,3.52,3.52
	l0,0C21.69,23.71,20.12,25.29,18.17,25.29L18.17,25.29z M24.27,22.06h-1.88c0.01-0.1,0.02-0.2,0.02-0.3
	c-0.02-2.34-1.93-4.22-4.26-4.2c-2.31,0.02-4.19,1.89-4.2,4.2c0,0.1,0.01,0.2,0.01,0.3H1.73v-5.46h22.55V22.06z M25.29,15.89H0.71
	v-1.46h24.58V15.89z M23.21,6.32v7.4h-1.45v-7.4c0.29-0.15,0.54-0.36,0.72-0.62C22.67,5.97,22.92,6.18,23.21,6.32z M25.29,4.59
	c0,0.68-0.55,1.22-1.22,1.22c-0.69-0.01-1.24-0.58-1.23-1.27c0-0.04,0-0.07,0.01-0.11h2.45V4.59z"/>
<g>
	<g>
		<path style="fill:#FFFFFF;" d="M19.34,12.14L19.34,12.14c-0.18,0-0.31,0.14-0.31,0.31s0.14,0.31,0.31,0.31s0.31-0.14,0.31-0.31
			C19.65,12.28,19.51,12.14,19.34,12.14z"/>
	</g>
</g>
<g>
	<g>
		<path style="fill:#FFFFFF;" d="M18.7,10.9c-0.17,0-0.31,0.14-0.31,0.31v2.47c0,0.17,0.14,0.31,0.31,0.31
			c0.17,0,0.31-0.14,0.31-0.31v-2.47C19.01,11.04,18.87,10.9,18.7,10.9z"/>
	</g>
</g>
<g>
	<g>
		<path style="fill:#FFFFFF;" d="M19.94,10.9c-0.17,0-0.31,0.14-0.31,0.31v2.47c0,0.17,0.14,0.31,0.31,0.31
			c0.17,0,0.31-0.14,0.31-0.31v-2.47C20.25,11.04,20.11,10.9,19.94,10.9z"/>
	</g>
</g>
<g>
	<g>
		<path style="fill:#FFFFFF;" d="M19.94,10.9H18.7c-0.17,0-0.31,0.14-0.31,0.31c0,0.17,0.14,0.31,0.31,0.31h1.24
			c0.17,0,0.31-0.14,0.31-0.31C20.25,11.04,20.11,10.9,19.94,10.9z"/>
	</g>
</g>
<g>
	<g>
		<path style="fill:#FFFFFF;" d="M17.46,10.9h-1.24c-0.17,0-0.31,0.14-0.31,0.31c0,0.17,0.14,0.31,0.31,0.31h1.24
			c0.17,0,0.31-0.14,0.31-0.31C17.77,11.04,17.63,10.9,17.46,10.9z"/>
	</g>
</g>
<g>
	<g>
		<path style="fill:#FFFFFF;" d="M19.32,10.28c-0.17,0-0.31,0.14-0.31,0.31v0.62c0,0.17,0.14,0.31,0.31,0.31s0.31-0.14,0.31-0.31
			v-0.62C19.63,10.42,19.49,10.28,19.32,10.28z"/>
	</g>
</g>
<g>
	<g>
		<path style="fill:#FFFFFF;" d="M16.23,10.9c-0.17,0-0.31,0.14-0.31,0.31v2.47c0,0.17,0.14,0.31,0.31,0.31
			c0.17,0,0.31-0.14,0.31-0.31v-2.47C16.54,11.04,16.4,10.9,16.23,10.9z"/>
	</g>
</g>
<g>
	<g>
		<path style="fill:#FFFFFF;" d="M17.46,10.9c-0.17,0-0.31,0.14-0.31,0.31v2.47c0,0.17,0.14,0.31,0.31,0.31
			c0.17,0,0.31-0.14,0.31-0.31v-2.47C17.77,11.04,17.63,10.9,17.46,10.9z"/>
	</g>
</g>
<path style="fill:#FFFFFF;" d="M16.23,11.52h1.24"/>
<g>
	<g>
		<path style="fill:#FFFFFF;" d="M16.85,10.28c-0.17,0-0.31,0.14-0.31,0.31v0.62c0,0.17,0.14,0.31,0.31,0.31s0.31-0.14,0.31-0.31
			v-0.62C17.16,10.42,17.02,10.28,16.85,10.28z"/>
	</g>
</g>
<g>
	<g>
		<path style="fill:#FFFFFF;" d="M17.46,12.14h-1.24c-0.17,0-0.31,0.14-0.31,0.31s0.14,0.31,0.31,0.31h1.24
			c0.17,0,0.31-0.14,0.31-0.31C17.77,12.28,17.63,12.14,17.46,12.14z"/>
	</g>
</g>
<g>
	<g>
		<path style="fill:#FFFFFF;" d="M6.94,13.65l-0.31-2.47C6.61,11,6.45,10.89,6.29,10.91C6.12,10.93,6,11.08,6.02,11.25l0.31,2.48
			C6.35,13.88,6.48,14,6.64,14c0.01,0,0.03,0,0.04,0C6.85,13.97,6.97,13.82,6.94,13.65z"/>
	</g>
</g>
<g>
	<g>
		<path style="fill:#FFFFFF;" d="M8.22,10.91C8.05,10.89,7.9,11,7.88,11.17l-0.31,2.47c-0.02,0.17,0.1,0.33,0.27,0.35
			c0.01,0,0.03,0,0.04,0c0.15,0,0.29-0.11,0.31-0.27l0.31-2.48C8.51,11.08,8.39,10.93,8.22,10.91z"/>
	</g>
</g>
<g>
	<g>
		<path style="fill:#FFFFFF;" d="M8.49,10.9H6.02c-0.17,0-0.31,0.14-0.31,0.31c0,0.17,0.14,0.31,0.31,0.31h2.47
			c0.17,0,0.31-0.14,0.31-0.31C8.8,11.04,8.66,10.9,8.49,10.9z"/>
	</g>
</g>
<g>
	<g>
		<path style="fill:#FFFFFF;" d="M7.64,9.68C7.47,9.63,7.31,9.73,7.27,9.9l-0.31,1.24c-0.04,0.17,0.06,0.33,0.23,0.37
			c0.03,0.01,0.05,0.01,0.08,0.01c0.14,0,0.27-0.09,0.3-0.23l0.31-1.24C7.91,9.88,7.81,9.72,7.64,9.68z"/>
	</g>
</g>
</svg>
