<?xml version="1.0" encoding="utf-8"?>
<!-- Generator: Adobe Illustrator 16.0.4, SVG Export Plug-In . SVG Version: 6.00 Build 0)  -->
<!DOCTYPE svg PUBLIC "-//W3C//DTD SVG 1.1//EN" "http://www.w3.org/Graphics/SVG/1.1/DTD/svg11.dtd">
<svg version="1.1" id="Capa_1" xmlns="http://www.w3.org/2000/svg" xmlns:xlink="http://www.w3.org/1999/xlink" x="0px" y="0px"
	 width="50px" height="50px" viewBox="0 2.27 30 15.47" style="enable-background:new 0 2.27 30 15.47;" xml:space="preserve">
<g>
	<g>
		<path style="fill:#FFFFFF;" d="M14.18,11.09L14.18,11.09c-0.1,0-0.17,0.08-0.17,0.17c0,0.09,0.08,0.17,0.17,0.17
			c0.09,0,0.17-0.08,0.17-0.17C14.35,11.17,14.27,11.09,14.18,11.09z"/>
	</g>
</g>
<g>
	<g>
		<path style="fill:#FFFFFF;" d="M15.83,2.27H1.71c-0.13,0-0.23,0.1-0.23,0.23c0,0.13,0.1,0.23,0.23,0.23h14.12V2.27L15.83,2.27z"/>
		<path style="fill:#FFFFFF;" d="M28.46,10.88c-0.82-0.72-2.01-1.71-2.3-1.95c-0.21-0.98-1.54-6.67-3.48-6.67h-6.84v0.47h6.84
			c1.23,0,2.52,3.91,3.04,6.38c0.01,0.05,0.04,0.1,0.08,0.13c0.01,0.01,1.42,1.18,2.35,1.99c0.85,0.74,0.86,2.97,0.86,2.99
			c0,0.13,0.11,0.23,0.23,0.23s0.23-0.11,0.23-0.23C29.47,14.12,29.46,11.76,28.46,10.88z"/>
	</g>
</g>
<g>
	<g>
		<path style="fill:#FFFFFF;" d="M0.7,3.2c-0.13,0-0.23,0.1-0.23,0.23v10.78c0,0.13,0.1,0.23,0.23,0.23c0.13,0,0.23-0.11,0.23-0.23
			V3.44C0.94,3.31,0.83,3.2,0.7,3.2z"/>
	</g>
</g>
<g>
	<g>
		<path style="fill:#FFFFFF;" d="M22.26,15.39H10.55c-0.13,0-0.23,0.11-0.23,0.23s0.1,0.23,0.23,0.23h11.72
			c0.13,0,0.23-0.1,0.23-0.23C22.5,15.5,22.39,15.39,22.26,15.39z"/>
	</g>
</g>
<g>
	<g>
		<path style="fill:#FFFFFF;" d="M29.76,15.39h-2.34c-0.13,0-0.23,0.11-0.23,0.23s0.1,0.23,0.23,0.23h2.34
			c0.13,0,0.23-0.1,0.23-0.23S29.89,15.39,29.76,15.39z"/>
	</g>
</g>
<g>
	<g>
		<path style="fill:#FFFFFF;" d="M29.77,14.45c-0.13,0-0.23,0.1-0.23,0.23l0,0.94c0,0.13,0.1,0.23,0.23,0.23
			c0.13,0,0.23-0.11,0.23-0.23l0-0.94C30,14.56,29.89,14.45,29.77,14.45z"/>
	</g>
</g>
<g>
	<g>
		<path style="fill:#FFFFFF;" d="M29.77,14.45h-0.94c-0.13,0-0.23,0.1-0.23,0.23c0,0.13,0.1,0.23,0.23,0.23h0.94
			c0.13,0,0.23-0.11,0.23-0.23S29.89,14.45,29.77,14.45z"/>
	</g>
</g>
<g>
	<g>
		<path style="fill:#FFFFFF;" d="M17.58,2.73c-0.13,0-0.23,0.1-0.23,0.23v12.17c0,0.13,0.1,0.23,0.23,0.23s0.23-0.1,0.23-0.23V2.97
			C17.81,2.84,17.71,2.73,17.58,2.73z"/>
	</g>
</g>
<g>
	<g>
		<path style="fill:#FFFFFF;" d="M24.14,4.61c-0.13,0-0.23,0.1-0.23,0.23v4.22c0,0.13,0.1,0.23,0.23,0.23c0.13,0,0.24-0.1,0.24-0.23
			V4.84C24.37,4.71,24.27,4.61,24.14,4.61z"/>
	</g>
</g>
<g>
	<g>
		<path style="fill:#FFFFFF;" d="M26.01,8.83h-1.88c-0.13,0-0.23,0.1-0.23,0.23c0,0.13,0.1,0.23,0.23,0.23h1.88
			c0.13,0,0.23-0.1,0.23-0.23C26.25,8.93,26.14,8.83,26.01,8.83z"/>
	</g>
</g>
<g>
	<g>
		<path style="fill:#FFFFFF;" d="M24.71,4.61h-0.57c-0.13,0-0.23,0.1-0.23,0.23c0,0.13,0.1,0.23,0.23,0.23h0.57
			c0.13,0,0.23-0.1,0.23-0.23C24.94,4.71,24.84,4.61,24.71,4.61z"/>
	</g>
</g>
<g>
	<g>
		<path style="fill:#FFFFFF;" d="M5.39,15.39H0.23C0.1,15.39,0,15.5,0,15.62s0.1,0.23,0.23,0.23h5.16c0.13,0,0.23-0.1,0.23-0.23
			S5.52,15.39,5.39,15.39z"/>
	</g>
</g>
<g>
	<g>
		<path style="fill:#FFFFFF;" d="M0.23,14.44C0.1,14.44,0,14.55,0,14.68v0.95c0,0.13,0.1,0.23,0.23,0.23s0.23-0.11,0.23-0.23v-0.95
			C0.47,14.55,0.36,14.44,0.23,14.44z"/>
	</g>
</g>
<g>
	<g>
		<path style="fill:#FFFFFF;" d="M1.64,14.45l-1.41-0.01c0,0,0,0,0,0c-0.13,0-0.23,0.1-0.23,0.23c0,0.13,0.1,0.24,0.23,0.24
			l1.41,0.01c0,0,0,0,0,0c0.13,0,0.23-0.1,0.23-0.23C1.88,14.56,1.77,14.45,1.64,14.45z"/>
	</g>
</g>
<g>
	<g>
		<path style="fill:#FFFFFF;" d="M1.64,2.27c-0.65,0-1.17,0.53-1.17,1.17c0,0.13,0.1,0.23,0.23,0.23s0.23-0.1,0.23-0.23
			c0-0.39,0.32-0.7,0.7-0.7c0.13,0,0.23-0.1,0.23-0.23C1.87,2.37,1.77,2.27,1.64,2.27z"/>
	</g>
</g>
<g>
	<g>
		<path style="fill:#FFFFFF;" d="M22.26,4.61h-3.28c-0.39,0-0.7,0.32-0.7,0.7v3.28c0,0.39,0.32,0.7,0.7,0.7h3.28
			c0.39,0,0.7-0.32,0.7-0.7V5.31C22.97,4.92,22.65,4.61,22.26,4.61z M22.5,8.59c0,0.13-0.11,0.23-0.23,0.23h-3.28
			c-0.13,0-0.23-0.1-0.23-0.23V5.31c0-0.13,0.11-0.23,0.23-0.23h3.28c0.13,0,0.23,0.11,0.23,0.23V8.59z"/>
	</g>
</g>
<g>
	<g>
		<path style="fill:#FFFFFF;" d="M20.86,4.61c-0.13,0-0.23,0.1-0.23,0.23v4.21c0,0.13,0.1,0.23,0.23,0.23s0.23-0.1,0.23-0.23V4.84
			C21.09,4.71,20.99,4.61,20.86,4.61z"/>
	</g>
</g>
<g>
	<g>
		<path style="fill:#FFFFFF;" d="M3.05,5.55c-0.13,0-0.23,0.1-0.23,0.23c0,0.13-0.11,0.23-0.23,0.23s-0.23-0.1-0.23-0.23
			c0-0.13-0.1-0.23-0.23-0.23c-0.13,0-0.23,0.1-0.23,0.23c0,0.39,0.31,0.7,0.7,0.7c0.39,0,0.7-0.32,0.7-0.7
			C3.28,5.65,3.18,5.55,3.05,5.55z"/>
	</g>
</g>
<g>
	<g>
		<path style="fill:#FFFFFF;" d="M3.98,5.55c-0.13,0-0.23,0.1-0.23,0.23c0,0.13-0.11,0.23-0.23,0.23s-0.23-0.1-0.23-0.23
			c0-0.13-0.1-0.23-0.23-0.23c-0.13,0-0.23,0.1-0.23,0.23c0,0.39,0.32,0.7,0.7,0.7s0.7-0.32,0.7-0.7C4.22,5.65,4.11,5.55,3.98,5.55z
			"/>
	</g>
</g>
<g>
	<g>
		<path style="fill:#FFFFFF;" d="M4.92,5.55c-0.13,0-0.23,0.1-0.23,0.23c0,0.13-0.11,0.23-0.23,0.23s-0.23-0.1-0.23-0.23
			c0-0.13-0.1-0.23-0.23-0.23c-0.13,0-0.23,0.1-0.23,0.23c0,0.39,0.32,0.7,0.7,0.7s0.7-0.32,0.7-0.7C5.16,5.65,5.05,5.55,4.92,5.55z
			"/>
	</g>
</g>
<g>
	<g>
		<path style="fill:#FFFFFF;" d="M5.86,5.55c-0.13,0-0.23,0.1-0.23,0.23c0,0.13-0.11,0.23-0.23,0.23s-0.23-0.1-0.23-0.23
			c0-0.13-0.1-0.23-0.23-0.23c-0.13,0-0.23,0.1-0.23,0.23c0,0.39,0.31,0.7,0.7,0.7c0.39,0,0.7-0.32,0.7-0.7
			C6.09,5.65,5.99,5.55,5.86,5.55z"/>
	</g>
</g>
<g>
	<g>
		<path style="fill:#FFFFFF;" d="M6.8,5.55c-0.13,0-0.23,0.1-0.23,0.23c0,0.13-0.11,0.23-0.23,0.23c-0.13,0-0.23-0.1-0.23-0.23
			c0-0.13-0.1-0.23-0.23-0.23s-0.23,0.1-0.23,0.23c0,0.39,0.32,0.7,0.7,0.7c0.39,0,0.7-0.32,0.7-0.7C7.03,5.65,6.93,5.55,6.8,5.55z"
			/>
	</g>
</g>
<g>
	<g>
		<path style="fill:#FFFFFF;" d="M7.73,5.55c-0.13,0-0.23,0.1-0.23,0.23c0,0.13-0.11,0.23-0.23,0.23s-0.23-0.1-0.23-0.23
			c0-0.13-0.1-0.23-0.23-0.23s-0.23,0.1-0.23,0.23c0,0.39,0.32,0.7,0.7,0.7c0.39,0,0.7-0.32,0.7-0.7C7.97,5.65,7.86,5.55,7.73,5.55z
			"/>
	</g>
</g>
<g>
	<g>
		<path style="fill:#FFFFFF;" d="M8.67,5.55c-0.13,0-0.23,0.1-0.23,0.23c0,0.13-0.11,0.23-0.23,0.23s-0.23-0.1-0.23-0.23
			c0-0.13-0.1-0.23-0.23-0.23c-0.13,0-0.23,0.1-0.23,0.23c0,0.39,0.32,0.7,0.7,0.7s0.7-0.32,0.7-0.7C8.91,5.65,8.8,5.55,8.67,5.55z"
			/>
	</g>
</g>
<g>
	<g>
		<path style="fill:#FFFFFF;" d="M9.61,5.55c-0.13,0-0.23,0.1-0.23,0.23c0,0.13-0.11,0.23-0.23,0.23c-0.13,0-0.23-0.1-0.23-0.23
			c0-0.13-0.1-0.23-0.23-0.23s-0.23,0.1-0.23,0.23c0,0.39,0.32,0.7,0.7,0.7s0.7-0.32,0.7-0.7C9.84,5.65,9.74,5.55,9.61,5.55z"/>
	</g>
</g>
<g>
	<g>
		<path style="fill:#FFFFFF;" d="M10.55,5.55c-0.13,0-0.23,0.1-0.23,0.23c0,0.13-0.11,0.23-0.23,0.23s-0.23-0.1-0.23-0.23
			c0-0.13-0.1-0.23-0.23-0.23s-0.23,0.1-0.23,0.23c0,0.39,0.32,0.7,0.7,0.7c0.39,0,0.7-0.32,0.7-0.7
			C10.78,5.65,10.68,5.55,10.55,5.55z"/>
	</g>
</g>
<g>
	<g>
		<path style="fill:#FFFFFF;" d="M11.48,5.55c-0.13,0-0.23,0.1-0.23,0.23c0,0.13-0.11,0.23-0.23,0.23c-0.13,0-0.23-0.1-0.23-0.23
			c0-0.13-0.1-0.23-0.23-0.23s-0.23,0.1-0.23,0.23c0,0.39,0.32,0.7,0.7,0.7c0.39,0,0.7-0.32,0.7-0.7
			C11.72,5.65,11.61,5.55,11.48,5.55z"/>
	</g>
</g>
<g>
	<g>
		<path style="fill:#FFFFFF;" d="M12.42,5.55c-0.13,0-0.23,0.1-0.23,0.23c0,0.13-0.1,0.23-0.23,0.23c-0.13,0-0.23-0.1-0.23-0.23
			c0-0.13-0.1-0.23-0.23-0.23s-0.23,0.1-0.23,0.23c0,0.39,0.32,0.7,0.7,0.7s0.7-0.32,0.7-0.7C12.66,5.65,12.55,5.55,12.42,5.55z"/>
	</g>
</g>
<g>
	<g>
		<path style="fill:#FFFFFF;" d="M13.36,5.55c-0.13,0-0.23,0.1-0.23,0.23c0,0.13-0.1,0.23-0.23,0.23c-0.13,0-0.23-0.1-0.23-0.23
			c0-0.13-0.1-0.23-0.23-0.23s-0.23,0.1-0.23,0.23c0,0.39,0.32,0.7,0.7,0.7s0.7-0.32,0.7-0.7C13.59,5.65,13.49,5.55,13.36,5.55z"/>
	</g>
</g>
<g>
	<g>
		<path style="fill:#FFFFFF;" d="M14.3,5.55c-0.13,0-0.23,0.1-0.23,0.23c0,0.13-0.1,0.23-0.23,0.23c-0.13,0-0.23-0.1-0.23-0.23
			c0-0.13-0.1-0.23-0.23-0.23s-0.23,0.1-0.23,0.23c0,0.39,0.32,0.7,0.7,0.7s0.7-0.32,0.7-0.7C14.53,5.65,14.43,5.55,14.3,5.55z"/>
	</g>
</g>
<g>
	<g>
		<path style="fill:#FFFFFF;" d="M15.23,5.55C15.1,5.55,15,5.65,15,5.78c0,0.13-0.11,0.23-0.23,0.23s-0.23-0.1-0.23-0.23
			c0-0.13-0.1-0.23-0.23-0.23s-0.23,0.1-0.23,0.23c0,0.39,0.32,0.7,0.7,0.7s0.7-0.32,0.7-0.7C15.47,5.65,15.36,5.55,15.23,5.55z"/>
	</g>
</g>
<g>
	<g>
		<path style="fill:#FFFFFF;" d="M16.17,5.55c-0.13,0-0.23,0.1-0.23,0.23c0,0.13-0.1,0.23-0.23,0.23c-0.13,0-0.23-0.1-0.23-0.23
			c0-0.13-0.1-0.23-0.23-0.23S15,5.65,15,5.78c0,0.39,0.32,0.7,0.7,0.7c0.39,0,0.7-0.32,0.7-0.7C16.41,5.65,16.3,5.55,16.17,5.55z"
			/>
	</g>
</g>
<g>
	<g>
		<path style="fill:#FFFFFF;" d="M2.11,4.61c-0.13,0-0.23,0.1-0.23,0.23v0.94c0,0.13,0.1,0.23,0.23,0.23s0.23-0.1,0.23-0.23V4.84
			C2.34,4.71,2.24,4.61,2.11,4.61z"/>
	</g>
</g>
<g>
	<g>
		<path style="fill:#FFFFFF;" d="M16.17,4.61c-0.13,0-0.23,0.1-0.23,0.23v0.94c0,0.13,0.1,0.23,0.23,0.23s0.23-0.1,0.23-0.23V4.84
			C16.41,4.71,16.3,4.61,16.17,4.61z"/>
	</g>
</g>
<g>
	<g>
		<path style="fill:#FFFFFF;" d="M15.76,4.61H2.11c-0.13,0-0.23,0.1-0.23,0.23c0,0.13,0.1,0.23,0.23,0.23h13.65V4.61L15.76,4.61z"/>
		<path style="fill:#FFFFFF;" d="M16.17,4.61h-0.41v0.47h0.41c0.13,0,0.23-0.1,0.23-0.23S16.3,4.61,16.17,4.61z"/>
	</g>
</g>
<g>
	<g>
		<path style="fill:#FFFFFF;" d="M3.21,3.74c-0.09-0.09-0.24-0.09-0.33,0L1.94,4.68c-0.09,0.09-0.09,0.24,0,0.33
			c0.05,0.05,0.11,0.07,0.17,0.07s0.12-0.02,0.17-0.07l0.94-0.94C3.3,3.98,3.3,3.83,3.21,3.74z"/>
	</g>
</g>
<g>
	<g>
		<path style="fill:#FFFFFF;" d="M15.85,4.11l-0.36-0.36c-0.09-0.09-0.24-0.09-0.33,0c-0.09,0.09-0.09,0.24,0,0.33l0.69,0.69V4.11z"
			/>
		<path style="fill:#FFFFFF;" d="M16.29,4.56l-0.45-0.45v0.66l0.12,0.12c0.05,0.05,0.11,0.07,0.17,0.07c0.06,0,0.12-0.02,0.17-0.07
			C16.39,4.8,16.39,4.65,16.29,4.56z"/>
	</g>
</g>
<g>
	<g>
		<path style="fill:#FFFFFF;" d="M15.23,3.67H3.05c-0.13,0-0.23,0.1-0.23,0.23c0,0.13,0.1,0.23,0.23,0.23h12.19
			c0.13,0,0.23-0.1,0.23-0.23C15.47,3.78,15.36,3.67,15.23,3.67z"/>
	</g>
</g>
<g>
	<g>
		<path style="fill:#FFFFFF;" d="M3.05,6.48c-0.13,0-0.23,0.1-0.23,0.23v5.16c0,0.13,0.1,0.23,0.23,0.23S3.28,12,3.28,11.88V6.72
			C3.28,6.59,3.18,6.48,3.05,6.48z"/>
	</g>
</g>
<g>
	<g>
		<path style="fill:#FFFFFF;" d="M15.7,12.11H2.58c-0.13,0-0.23,0.1-0.23,0.23c0,0.13,0.1,0.23,0.23,0.23H15.7
			c0.13,0,0.23-0.1,0.23-0.23S15.83,12.11,15.7,12.11z"/>
	</g>
</g>
<g>
	<g>
		<path style="fill:#FFFFFF;" d="M15.23,6.48C15.1,6.48,15,6.59,15,6.72v5.16c0,0.13,0.1,0.23,0.23,0.23s0.23-0.11,0.23-0.23V6.72
			C15.47,6.59,15.36,6.48,15.23,6.48z"/>
	</g>
</g>
<g>
	<g>
		<path style="fill:#FFFFFF;" d="M24.84,13.05c-1.29,0-2.34,1.05-2.34,2.34c0,1.29,1.05,2.34,2.34,2.34s2.34-1.05,2.34-2.34
			C27.19,14.1,26.13,13.05,24.84,13.05z M24.84,17.27c-1.03,0-1.88-0.84-1.88-1.88s0.84-1.88,1.88-1.88s1.87,0.84,1.87,1.88
			S25.88,17.27,24.84,17.27z"/>
	</g>
</g>
<g>
	<g>
		<path style="fill:#FFFFFF;" d="M24.84,13.98c-0.78,0-1.41,0.63-1.41,1.41s0.63,1.41,1.41,1.41c0.77,0,1.41-0.63,1.41-1.41
			S25.62,13.98,24.84,13.98z M24.84,16.33c-0.52,0-0.94-0.42-0.94-0.94s0.42-0.94,0.94-0.94s0.94,0.42,0.94,0.94
			S25.36,16.33,24.84,16.33z"/>
	</g>
</g>
<g>
	<g>
		<path style="fill:#FFFFFF;" d="M7.97,13.05c-1.29,0-2.34,1.05-2.34,2.34c0,1.29,1.05,2.34,2.34,2.34c1.29,0,2.34-1.05,2.34-2.34
			C10.31,14.1,9.26,13.05,7.97,13.05z M7.97,17.27c-1.03,0-1.88-0.84-1.88-1.88s0.84-1.88,1.88-1.88s1.88,0.84,1.88,1.88
			S9,17.27,7.97,17.27z"/>
	</g>
</g>
<g>
	<g>
		<path style="fill:#FFFFFF;" d="M7.97,13.98c-0.78,0-1.41,0.63-1.41,1.41s0.63,1.41,1.41,1.41s1.41-0.63,1.41-1.41
			S8.74,13.98,7.97,13.98z M7.97,16.33c-0.52,0-0.94-0.42-0.94-0.94s0.42-0.94,0.94-0.94c0.52,0,0.94,0.42,0.94,0.94
			S8.48,16.33,7.97,16.33z"/>
	</g>
</g>
<g>
	<g>
		<path style="fill:#FFFFFF;" d="M1.17,15.39c-0.13,0-0.23,0.11-0.23,0.23v0.94c0,0.13,0.1,0.23,0.23,0.23s0.23-0.1,0.23-0.23v-0.94
			C1.41,15.5,1.3,15.39,1.17,15.39z"/>
	</g>
</g>
<g>
	<g>
		<path style="fill:#FFFFFF;" d="M13.83,10.41c-0.09,0-0.17,0.08-0.17,0.17v1.36c0,0.09,0.08,0.17,0.17,0.17S14,12.03,14,11.94
			v-1.36C14,10.49,13.92,10.41,13.83,10.41z"/>
	</g>
</g>
<g>
	<g>
		<path style="fill:#FFFFFF;" d="M14.51,10.41c-0.09,0-0.17,0.08-0.17,0.17v1.36c0,0.09,0.08,0.17,0.17,0.17s0.17-0.08,0.17-0.17
			v-1.36C14.68,10.49,14.6,10.41,14.51,10.41z"/>
	</g>
</g>
<g>
	<g>
		<path style="fill:#FFFFFF;" d="M14.51,10.41h-0.68c-0.09,0-0.17,0.08-0.17,0.17s0.08,0.17,0.17,0.17h0.68
			c0.09,0,0.17-0.08,0.17-0.17S14.6,10.41,14.51,10.41z"/>
	</g>
</g>
<g>
	<g>
		<path style="fill:#FFFFFF;" d="M14.17,10.07c-0.09,0-0.17,0.08-0.17,0.17v0.34c0,0.09,0.08,0.17,0.17,0.17s0.17-0.08,0.17-0.17
			v-0.34C14.34,10.15,14.26,10.07,14.17,10.07z"/>
	</g>
</g>
<g>
	<g>
		<path style="fill:#FFFFFF;" d="M12.47,10.41c-0.09,0-0.17,0.08-0.17,0.17v1.36c0,0.09,0.08,0.17,0.17,0.17s0.17-0.08,0.17-0.17
			v-1.36C12.64,10.49,12.56,10.41,12.47,10.41z"/>
	</g>
</g>
<g>
	<g>
		<path style="fill:#FFFFFF;" d="M13.15,10.41c-0.09,0-0.17,0.08-0.17,0.17v1.36c0,0.09,0.08,0.17,0.17,0.17
			c0.09,0,0.17-0.08,0.17-0.17v-1.36C13.32,10.49,13.24,10.41,13.15,10.41z"/>
	</g>
</g>
<g>
	<g>
		<path style="fill:#FFFFFF;" d="M13.15,10.41h-0.68c-0.09,0-0.17,0.08-0.17,0.17s0.08,0.17,0.17,0.17h0.68
			c0.09,0,0.17-0.08,0.17-0.17S13.24,10.41,13.15,10.41z"/>
	</g>
</g>
<g>
	<g>
		<path style="fill:#FFFFFF;" d="M12.81,10.07c-0.09,0-0.17,0.08-0.17,0.17v0.34c0,0.09,0.08,0.17,0.17,0.17s0.17-0.08,0.17-0.17
			v-0.34C12.98,10.15,12.9,10.07,12.81,10.07z"/>
	</g>
</g>
<g>
	<g>
		<path style="fill:#FFFFFF;" d="M13.15,11.09h-0.68c-0.09,0-0.17,0.08-0.17,0.17c0,0.09,0.08,0.17,0.17,0.17h0.68
			c0.09,0,0.17-0.08,0.17-0.17C13.32,11.17,13.24,11.09,13.15,11.09z"/>
	</g>
</g>
<g>
	<g>
		<path style="fill:#FFFFFF;" d="M4.09,11.95l-0.14-1.15c-0.01-0.08-0.08-0.13-0.16-0.12c-0.08,0.01-0.13,0.08-0.12,0.16l0.14,1.15
			c0.01,0.07,0.07,0.13,0.14,0.13c0.01,0,0.01,0,0.02,0C4.04,12.1,4.1,12.03,4.09,11.95z"/>
	</g>
</g>
<g>
	<g>
		<path style="fill:#FFFFFF;" d="M4.69,10.67c-0.08-0.01-0.15,0.05-0.16,0.12l-0.14,1.15c-0.01,0.08,0.05,0.15,0.13,0.16
			c0.01,0,0.01,0,0.02,0c0.07,0,0.13-0.05,0.14-0.13l0.14-1.15C4.82,10.75,4.77,10.68,4.69,10.67z"/>
	</g>
</g>
<g>
	<g>
		<path style="fill:#FFFFFF;" d="M4.81,10.67H3.66c-0.08,0-0.14,0.06-0.14,0.14c0,0.08,0.06,0.14,0.14,0.14h1.15
			c0.08,0,0.14-0.06,0.14-0.14C4.96,10.73,4.89,10.67,4.81,10.67z"/>
	</g>
</g>
<g>
	<g>
		<path style="fill:#FFFFFF;" d="M4.42,10.09c-0.08-0.02-0.16,0.03-0.17,0.1L4.1,10.78c-0.02,0.08,0.03,0.16,0.11,0.17
			c0.01,0,0.02,0,0.03,0c0.06,0,0.12-0.04,0.14-0.11l0.14-0.58C4.54,10.19,4.49,10.11,4.42,10.09z"/>
	</g>
</g>
<g>
	<g>
		<path style="fill:#FFFFFF;" d="M29.15,12.58h-0.8c-0.13,0-0.23,0.1-0.23,0.23c0,0.13,0.1,0.23,0.23,0.23h0.8
			c0.13,0,0.23-0.1,0.23-0.23S29.28,12.58,29.15,12.58z"/>
	</g>
</g>
<g>
	<g>
		<path style="fill:#FFFFFF;" d="M28.36,12.58c-0.13,0-0.23,0.1-0.23,0.23v0.94c0,0.13,0.1,0.23,0.23,0.23
			c0.13,0,0.23-0.11,0.23-0.23v-0.94C28.59,12.68,28.49,12.58,28.36,12.58z"/>
	</g>
</g>
<g>
	<g>
		<path style="fill:#FFFFFF;" d="M29.29,13.52h-0.94c-0.13,0-0.23,0.11-0.23,0.23s0.1,0.23,0.23,0.23h0.94
			c0.13,0,0.23-0.11,0.23-0.23S29.42,13.52,29.29,13.52z"/>
	</g>
</g>
<g>
	<g>
		<path style="fill:#FFFFFF;" d="M23.2,9.77c-0.13,0-0.23,0.1-0.23,0.23v2.81c0,0.13,0.1,0.23,0.23,0.23s0.23-0.1,0.23-0.23V10
			C23.44,9.87,23.33,9.77,23.2,9.77z"/>
	</g>
</g>
<g>
	<g>
		<path style="fill:#FFFFFF;" d="M22.26,9.82c-0.13,0-0.23,0.1-0.23,0.23v0.88c0,0.13,0.1,0.23,0.23,0.23s0.23-0.1,0.23-0.23v-0.88
			C22.5,9.93,22.39,9.82,22.26,9.82z"/>
	</g>
</g>
</svg>
