<?xml version="1.0" encoding="utf-8"?>
<!-- Generator: Adobe Illustrator 16.0.4, SVG Export Plug-In . SVG Version: 6.00 Build 0)  -->
<!DOCTYPE svg PUBLIC "-//W3C//DTD SVG 1.1//EN" "http://www.w3.org/Graphics/SVG/1.1/DTD/svg11.dtd">
<svg version="1.1" id="Layer_1" xmlns="http://www.w3.org/2000/svg" xmlns:xlink="http://www.w3.org/1999/xlink" x="0px" y="0px"
	 width="26px" height="26px" viewBox="0 0 512 512" style="enable-background:new 0 0 512 512;" xml:space="preserve">
<g>
	<path style="fill:#FFFFFF;" d="M34,434.5V327h222v-14H14v-28.76h242v-14H97.5v-141.9c0.95,0.07,1.9,0.14,2.88,0.14
		c12.39-0.01,24-6.04,31.12-16.18c12.06,17.19,35.78,21.34,52.97,9.28c3.61-2.53,6.75-5.67,9.28-9.28
		c12.07,17.19,35.78,21.34,52.97,9.28c3.61-2.53,6.75-5.67,9.28-9.28V73.25H14V34.99C14.02,23.4,23.41,14.01,35,14h221V0H35
		C15.68,0.02,0.03,15.67,0,34.99v55.37c0.02,21.04,17.08,38.1,38.12,38.12c0.97,0,1.92-0.08,2.88-0.14v141.9H7c-3.87,0-7,3.13-7,7
		V320c0,3.87,3.13,7,7,7h13v114.5c0,3.87,3.13,7,7,7h21.73v44.49c0.01,10.49,8.51,18.98,19,19h19.5c10.49-0.01,18.99-8.51,19-19
		V448.5H256v-14H34z M200.75,87.23H249v3.12c-0.17,13.33-11.11,23.99-24.44,23.81c-13.08-0.17-23.65-10.73-23.81-23.81V87.23z
		 M138.5,90.36v-3.12h48.25v3.12c0,13.32-10.8,24.12-24.12,24.13C149.3,114.48,138.5,103.68,138.5,90.36
		C138.5,90.36,138.5,90.36,138.5,90.36z M76.25,87.23h48.25v3.12c0.02,13.31-10.76,24.11-24.07,24.12
		c-7.6,0.01-14.76-3.57-19.31-9.65C77.42,99.75,75.69,93.5,76.25,87.23z M69.25,112.4c3.72,5.13,8.6,9.29,14.25,12.15v145.69H55
		V124.53C60.65,121.68,65.53,117.52,69.25,112.4z M40.29,114.35c-0.72,0.08-1.44,0.12-2.17,0.13C24.81,114.47,14.02,103.68,14,90.36
		v-3.12h48.25C63.67,100.79,53.84,112.93,40.29,114.35z M92.25,492.99c0,2.76-2.24,5-5,5h-19.5c-2.76,0-5-2.24-5-5V448.5h29.5
		V492.99z"/>
	<path style="fill:#FFFFFF;" d="M256,434.5v14h149.77v44.49c0.01,10.49,8.51,18.99,19,19h19.5c10.49-0.02,18.99-8.51,19-19V448.5
		H485c3.87,0,7-3.13,7-7V327h13c3.87,0,7-3.13,7-7v-42.76c0-3.87-3.13-7-7-7h-34v-141.9c0.95,0.07,1.9,0.14,2.88,0.14
		c21.04-0.02,38.1-17.08,38.12-38.12V34.99C511.97,15.67,496.32,0.02,477,0H256v14h221c11.59,0.01,20.98,9.4,21,20.99v38.26H256
		v39.06c2.53,3.61,5.67,6.75,9.28,9.28c17.19,12.06,40.91,7.91,52.97-9.28c2.53,3.61,5.67,6.75,9.28,9.28
		c17.19,12.06,40.9,7.91,52.97-9.28c7.12,10.14,18.73,16.17,31.12,16.18c0.97,0,1.92-0.08,2.88-0.14v141.9H256v14h242V313H256v14
		h222v107.5H256z M311.25,90.36c-0.17,13.08-10.73,23.65-23.81,23.81c-13.33,0.17-24.27-10.49-24.44-23.81v-3.12h48.25V90.36z
		 M373.5,90.36c0,13.32-10.8,24.12-24.13,24.12c-13.32,0-24.12-10.8-24.12-24.13v-3.12h48.25V90.36
		C373.5,90.36,373.5,90.36,373.5,90.36z M430.88,104.83c-4.56,6.08-11.71,9.66-19.31,9.65c-13.31-0.02-24.08-10.82-24.07-24.12
		v-3.12h48.25C436.31,93.5,434.58,99.75,430.88,104.83z M457,124.53v145.71h-28.5V124.55c5.65-2.86,10.54-7.02,14.25-12.15
		C446.47,117.52,451.35,121.68,457,124.53z M449.75,87.24H498v3.12c-0.02,13.32-10.81,24.11-24.12,24.12
		c-0.72-0.01-1.45-0.06-2.17-0.13C458.16,112.93,448.33,100.79,449.75,87.24z M419.75,448.5h29.5v44.49c0,2.76-2.24,5-5,5h-19.5
		c-2.76,0-5-2.24-5-5V448.5z"/>
</g>
<g>
	<g>
		<path style="fill:#FFFFFF;" d="M380.48,238.13h-0.13c-3.35,0-6.02,2.71-6.02,6.08c0,3.36,2.78,6.08,6.15,6.08
			c3.35,0,6.08-2.72,6.08-6.08C386.57,240.84,383.84,238.13,380.48,238.13z"/>
	</g>
</g>
<g>
	<g>
		<path style="fill:#FFFFFF;" d="M367.95,213.79c-3.37,0-6.08,2.72-6.08,6.08v48.67c0,3.37,2.72,6.08,6.08,6.08
			c3.36,0,6.08-2.71,6.08-6.08v-48.67C374.04,216.51,371.31,213.79,367.95,213.79z"/>
	</g>
</g>
<g>
	<g>
		<path style="fill:#FFFFFF;" d="M392.29,213.79c-3.36,0-6.08,2.72-6.08,6.08v48.67c0,3.37,2.72,6.08,6.08,6.08
			c3.36,0,6.08-2.71,6.08-6.08v-48.67C398.37,216.51,395.65,213.79,392.29,213.79z"/>
	</g>
</g>
<g>
	<g>
		<path style="fill:#FFFFFF;" d="M392.29,213.79h-24.34c-3.37,0-6.08,2.72-6.08,6.08c0,3.36,2.72,6.08,6.08,6.08h24.34
			c3.36,0,6.08-2.72,6.08-6.08C398.37,216.51,395.65,213.79,392.29,213.79z"/>
	</g>
</g>
<g>
	<g>
		<path style="fill:#FFFFFF;" d="M343.61,213.79h-24.34c-3.37,0-6.08,2.72-6.08,6.08c0,3.36,2.72,6.08,6.08,6.08h24.34
			c3.36,0,6.08-2.72,6.08-6.08C349.7,216.51,346.98,213.79,343.61,213.79z"/>
	</g>
</g>
<g>
	<g>
		<path style="fill:#FFFFFF;" d="M380.12,201.62c-3.36,0-6.08,2.72-6.08,6.08v12.17c0,3.36,2.72,6.08,6.08,6.08
			c3.36,0,6.08-2.72,6.08-6.08V207.7C386.2,204.35,383.48,201.62,380.12,201.62z"/>
	</g>
</g>
<g>
	<g>
		<path style="fill:#FFFFFF;" d="M319.28,213.79c-3.37,0-6.08,2.72-6.08,6.08v48.67c0,3.37,2.72,6.08,6.08,6.08s6.08-2.71,6.08-6.08
			v-48.67C325.36,216.51,322.64,213.79,319.28,213.79z"/>
	</g>
</g>
<g>
	<g>
		<path style="fill:#FFFFFF;" d="M343.61,213.79c-3.36,0-6.08,2.72-6.08,6.08v48.67c0,3.37,2.72,6.08,6.08,6.08
			c3.36,0,6.08-2.71,6.08-6.08v-48.67C349.7,216.51,346.98,213.79,343.61,213.79z"/>
	</g>
</g>
<path style="fill:#FFFFFF;" d="M319.28,225.95h24.34"/>
<g>
	<g>
		<path style="fill:#FFFFFF;" d="M331.45,201.62c-3.37,0-6.08,2.72-6.08,6.08v12.17c0,3.36,2.71,6.08,6.08,6.08
			c3.36,0,6.08-2.72,6.08-6.08V207.7C337.53,204.35,334.81,201.62,331.45,201.62z"/>
	</g>
</g>
<g>
	<g>
		<path style="fill:#FFFFFF;" d="M343.61,238.13h-24.34c-3.36,0-6.08,2.71-6.08,6.08c0,3.36,2.72,6.08,6.08,6.08h24.34
			c3.36,0,6.08-2.72,6.08-6.08C349.7,240.84,346.98,238.13,343.61,238.13z"/>
	</g>
</g>
<g>
	<g>
		<path style="fill:#FFFFFF;" d="M136.72,267.79l-6.08-48.67c-0.42-3.34-3.57-5.64-6.8-5.28c-3.33,0.42-5.69,3.46-5.27,6.8
			l6.08,48.66c0.38,3.07,3.01,5.32,6.02,5.32c0.26,0,0.51-0.02,0.77-0.05C134.77,274.16,137.13,271.12,136.72,267.79z"/>
	</g>
</g>
<g>
	<g>
		<path style="fill:#FFFFFF;" d="M161.86,213.84c-3.34-0.36-6.38,1.94-6.8,5.28l-6.08,48.67c-0.41,3.34,1.95,6.38,5.28,6.79
			c0.26,0.03,0.51,0.05,0.78,0.05c3.02,0,5.64-2.25,6.02-5.32l6.08-48.66C167.55,217.29,165.19,214.25,161.86,213.84z"/>
	</g>
</g>
<g>
	<g>
		<path style="fill:#FFFFFF;" d="M167.19,213.79h-48.67c-3.36,0-6.08,2.72-6.08,6.08c0,3.36,2.72,6.08,6.08,6.08h48.67
			c3.36,0,6.08-2.72,6.08-6.08C173.27,216.51,170.54,213.79,167.19,213.79z"/>
	</g>
</g>
<g>
	<g>
		<path style="fill:#FFFFFF;" d="M150.41,189.64c-3.33-0.81-6.57,1.16-7.38,4.43l-6.08,24.34c-0.81,3.25,1.17,6.56,4.43,7.37
			c0.5,0.13,0.99,0.19,1.48,0.19c2.74,0,5.22-1.85,5.91-4.61l6.08-24.33C155.65,193.75,153.67,190.45,150.41,189.64z"/>
	</g>
</g>
</svg>
